Coordinates
version=1
nRows=18
nColumns=22
inDegrees=yes

Units are S.I. units (second, meters, Newtons, ...)
If the header above contains a line with 'inDegrees', this indicates whether rotational values are in degrees (yes) or radians (no).

endheader
time	pelvis_tilt	pelvis_list	pelvis_rotation	pelvis_tx	pelvis_ty	pelvis_tz	hip_flexion_r	hip_adduction_r	hip_rotation_r	knee_angle_r	ankle_angle_r	subtalar_angle_r	hip_flexion_l	hip_adduction_l	hip_rotation_l	knee_angle_l	ankle_angle_l	subtalar_angle_l	lumbar_extension	lumbar_bending	lumbar_rotation
      0.01000000	     -5.50547105	      0.52021230	    -13.44781497	     -1.11464443	      0.88684025	     -0.06429183	      6.41167404	     -6.13483263	     -0.58029036	     -8.55177111	     11.92399454	      0.13752160	      4.82871316	     -5.66121090	    -12.69832321	     -9.97958822	     13.57989876	      5.74285945	      1.99055783	      0.42713131	     10.87171031
      0.02000000	     -5.50582094	      0.51868830	    -13.43637354	     -1.11458856	      0.88684346	     -0.06428152	      6.40731550	     -6.13327843	     -0.58268731	     -8.55673922	     11.92331016	      0.13688975	      4.82718636	     -5.66150208	    -12.70091102	     -9.97717419	     13.57758182	      5.74375084	      1.99400975	      0.42015076	     10.87195641
      0.03000000	     -5.49282094	      0.51848285	    -13.39151572	     -1.11449471	      0.88687028	     -0.06432553	      6.38104706	     -6.14287197	     -0.66817549	     -8.56116468	     11.93202073	      0.12368434	      4.80945534	     -5.65082419	    -12.65380199	     -9.95863317	     13.54696303	      5.76430077	      1.98373754	      0.40791236	     10.82492509
      0.04000000	     -5.49471950	      0.51583519	    -13.37893645	     -1.11443852	      0.88687667	     -0.06431755	      6.37642472	     -6.13958451	     -0.66789484	     -8.56340966	     11.93196474	      0.12355746	      4.80885134	     -5.65228500	    -12.65508452	     -9.95549220	     13.54763514	      5.76457044	      1.98622510	      0.40268171	     10.82594541
      0.05000000	     -5.49788924	      0.50215174	    -13.34478404	     -1.11433475	      0.88688468	     -0.06433290	      6.34946006	     -6.12825846	     -0.72570448	     -8.53801195	     11.93833993	      0.11958425	      4.80110080	     -5.66292896	    -12.62383457	     -9.93743443	     13.54908566	      5.77146359	      1.99296691	      0.41025316	     10.80626429
      0.06000000	     -5.49866924	      0.50013607	    -13.33749613	     -1.11427067	      0.88689406	     -0.06429826	      6.34405953	     -6.12480544	     -0.72526624	     -8.54178672	     11.93677470	      0.11955416	      4.79851019	     -5.66686566	    -12.62159346	     -9.93910998	     13.54877725	      5.77178013	      1.99672264	      0.40227238	     10.80595984
      0.07000000	     -5.50012120	      0.49804860	    -13.32856917	     -1.11421026	      0.88690220	     -0.06426400	      6.33815074	     -6.12109328	     -0.72785158	     -8.54283841	     11.93575307	      0.11945072	      4.79666846	     -5.67161303	    -12.61771238	     -9.94017027	     13.54849577	      5.77232291	      1.99980177	      0.39487851	     10.80790683
      0.08000000	     -5.49781608	      0.47511677	    -13.28472875	     -1.11411181	      0.88692697	     -0.06428277	      6.29146392	     -6.10106049	     -0.80030006	     -8.49801251	     11.91765775	      0.11540921	      4.78966156	     -5.69268362	    -12.54342327	     -9.93919665	     13.55154778	      5.78703501	      1.99568687	      0.41153820	     10.77642730
      0.09000000	     -5.49966331	      0.47459296	    -13.28029890	     -1.11405091	      0.88693245	     -0.06424005	      6.28678796	     -6.09837531	     -0.80139060	     -8.49849685	     11.91766640	      0.11542102	      4.78740100	     -5.69697791	    -12.54238768	     -9.94089673	     13.55142387	      5.78732116	      1.99994439	      0.40476677	     10.78144365
      0.10000000	     -5.50480843	      0.47224549	    -13.27747398	     -1.11398540	      0.88693371	     -0.06419945	      6.27479693	     -6.09274065	     -0.81806418	     -8.47709623	     11.92078988	      0.11514672	      4.78835813	     -5.70326239	    -12.53191991	     -9.94463691	     13.55226193	      5.79007882	      2.00731934	      0.40204528	     10.81533713
      0.11000000	     -5.50692672	      0.47215764	    -13.27683638	     -1.11392953	      0.88693502	     -0.06414708	      6.27022645	     -6.08960079	     -0.81978353	     -8.47509868	     11.92040340	      0.11522923	      4.78604378	     -5.70802955	    -12.53013490	     -9.94605356	     13.55274265	      5.79061479	      2.01227678	      0.39652242	     10.82022599
      0.12000000	     -5.51392625	      0.46958535	    -13.27888734	     -1.11387821	      0.88693146	     -0.06410685	      6.26068075	     -6.08321668	     -0.83068399	     -8.45056143	     11.92093262	      0.11560491	      4.78819301	     -5.71441366	    -12.52282221	     -9.94760378	     13.55608968	      5.79376983	      2.01974496	      0.39796776	     10.85829756
      0.13000000	     -5.51931218	      0.46648750	    -13.28529640	     -1.11383893	      0.88692742	     -0.06405176	      6.25426693	     -6.07554097	     -0.82848325	     -8.43375214	     11.91580482	      0.11666015	      4.78884960	     -5.72289044	    -12.52323924	     -9.94878093	     13.56114359	      5.79782765	      2.02494579	      0.39938007	     10.88620571
      0.14000000	     -5.52117308	      0.46772221	    -13.28572894	     -1.11380826	      0.88692757	     -0.06402110	      6.25333636	     -6.07519325	     -0.82846135	     -8.43396971	     11.91571047	      0.11669105	      4.78887984	     -5.72343278	    -12.52322190	     -9.94888019	     13.56122306	      5.79788977	      2.02415023	      0.39940370	     10.88675346
      0.15000000	     -5.53167314	      0.46060018	    -13.31893070	     -1.11378739	      0.88691577	     -0.06391226	      6.25620993	     -6.05673191	     -0.78666621	     -8.41428985	     11.90199001	      0.12238035	      4.79077925	     -5.74194679	    -12.56031327	     -9.95396324	     13.57791521	      5.80941578	      2.03255826	      0.40632872	     10.95299572
      0.16000000	     -5.53373628	      0.46205220	    -13.31935979	     -1.11375259	      0.88691321	     -0.06387675	      6.25530778	     -6.05639100	     -0.78680047	     -8.41461409	     11.90203595	      0.12240011	      4.79095878	     -5.74212957	    -12.56023450	     -9.95410150	     13.57788806	      5.80946582	      2.03137263	      0.40659550	     10.95346013
      0.17000000	     -5.53836674	      0.46218079	    -13.33236656	     -1.11372253	      0.88690561	     -0.06381361	      6.25575509	     -6.05200485	     -0.78738721	     -8.40625735	     11.90803969	      0.12395871	      4.79517393	     -5.74719202	    -12.56267263	     -9.96354487	     13.57742148	      5.81198710	      2.03181599	      0.40541541	     10.99499524
      0.18000000	     -5.54091280	      0.46384812	    -13.33263194	     -1.11367919	      0.88690112	     -0.06377210	      6.25501538	     -6.05135796	     -0.78728709	     -8.40663200	     11.90806027	      0.12400224	      4.79511079	     -5.74722607	    -12.56285073	     -9.96361877	     13.57747212	      5.81201163	      2.03034957	      0.40577100	     10.99525186
